<?xml version="1.0" encoding="UTF-8" standalone="no"?>
<!DOCTYPE svg PUBLIC "-//W3C//DTD SVG 1.1//EN" "http://www.w3.org/Graphics/SVG/1.1/DTD/svg11.dtd">
<svg width="100%" height="100%" viewBox="0 0 600 600" version="1.1" xmlns="http://www.w3.org/2000/svg" xmlns:xlink="http://www.w3.org/1999/xlink" xml:space="preserve" xmlns:serif="http://www.serif.com/" style="fill-rule:evenodd;clip-rule:evenodd;stroke-linejoin:round;stroke-miterlimit:2;">
    <rect id="Artboard1" x="0" y="0" width="600" height="600" style="fill:none;"/>
    <g id="Artboard11" serif:id="Artboard1">
        <g transform="matrix(1,0,0,1,-2.10321e-12,-25.6672)">
            <path d="M310.303,313.568C304.613,319.259 295.387,319.259 289.697,313.568C267.093,290.965 213.374,237.246 190.771,214.642C185.08,208.952 175.854,208.952 170.164,214.642C158.789,226.018 140.584,244.222 129.209,255.597C123.518,261.288 123.518,270.514 129.209,276.204C161.079,308.075 257.826,404.822 289.697,436.692C295.387,442.382 304.613,442.382 310.303,436.692C342.174,404.822 438.921,308.075 470.791,276.204C476.482,270.514 476.482,261.288 470.791,255.597C459.416,244.222 441.211,226.018 429.836,214.642C424.146,208.952 414.92,208.952 409.229,214.642C386.626,237.246 332.907,290.965 310.303,313.568Z" style="fill:white;"/>
        </g>
    </g>
</svg>
